External Loads File
version=1
nRows=62
nColumns=13
Range=5.000000e-03-10 seconds
endheader
time 	forceRightX 	forceRightY 	forceRightZ 	pointRightX 	pointRightY 	pointRightZ 	forceLeftX 	forceLeftY 	forceLeftZ 	pointLeftX 	pointLeftY 	pointLeftZ 		
5.005000 -6.355900 -114.386755 -0.000000 0.150243 0.247427 -0.187479 -54.063640 424.494607 -0.000000 0.467210 0.399700 -0.445312
5.010000 -13.054318 -118.191301 -0.000000 0.144671 0.256797 -0.186920 -64.696244 447.888065 -0.000000 0.471211 0.389715 -0.445617
5.015000 -18.510693 -117.819783 -0.000000 0.139827 0.266243 -0.186826 -76.056350 468.713106 -0.000000 0.474600 0.379131 -0.445685
5.020000 -22.463649 -113.813244 -0.000000 0.135634 0.276107 -0.186891 -87.706005 487.886534 -0.000000 0.477579 0.368367 -0.445606
5.025000 -24.568872 -107.075357 -0.000000 0.132212 0.286071 -0.187025 -99.986871 506.376639 -0.000000 0.479953 0.357572 -0.445336
5.030000 -24.982641 -98.613408 -0.000000 0.129740 0.296253 -0.187209 -111.815889 525.386381 -0.000000 0.481785 0.346469 -0.445383
5.035000 -23.904078 -89.412116 -0.000000 0.127872 0.306743 -0.187320 -122.656247 545.872851 -0.000000 0.482992 0.335187 -0.445227
5.040000 -21.622499 -80.269893 -0.000000 0.126841 0.317480 -0.187639 -132.353103 568.491564 -0.000000 0.483559 0.323880 -0.445417
5.045000 -18.485092 -71.738462 -0.000000 0.126839 0.328163 -0.187840 -141.080479 593.565899 -0.000000 0.483470 0.312637 -0.445269
5.050000 -15.003602 -64.088957 -0.000000 0.127738 0.339135 -0.188155 -147.839578 621.444545 -0.000000 0.482744 0.301495 -0.445228
5.055000 -11.462652 -57.455135 -0.000000 0.129645 0.349844 -0.188383 -153.197680 651.920523 -0.000000 0.481378 0.290441 -0.445021
5.060000 -8.258595 -51.826665 -0.000000 0.132140 0.360782 -0.188588 -156.137479 685.042390 -0.000000 0.479174 0.279615 -0.444911
5.065000 -5.616322 -47.171245 -0.000000 0.135475 0.371426 -0.189071 -157.072662 720.422327 -0.000000 0.476240 0.268905 -0.445035
5.070000 -3.824283 -43.409849 -0.000000 0.139556 0.382048 -0.189391 -155.120880 757.854039 -0.000000 0.472775 0.258235 -0.444926
5.075000 -3.001792 -40.458002 -0.000000 0.144404 0.392388 -0.189699 -151.082195 796.626411 -0.000000 0.468647 0.247965 -0.444694
5.080000 -3.276120 -38.217759 -0.000000 0.149877 0.402611 -0.190081 -144.351684 836.164361 -0.000000 0.463868 0.238115 -0.444330
5.085000 -4.691260 -36.590571 -0.000000 0.156189 0.412555 -0.190242 -134.598692 875.691696 -0.000000 0.458543 0.228622 -0.443950
5.090000 -7.231467 -35.466835 -0.000000 0.163203 0.422166 -0.190549 -121.766938 914.269329 -0.000000 0.452670 0.219529 -0.443572
5.095000 -10.807955 -34.735148 -0.000000 0.170824 0.431341 -0.190815 -106.204599 950.808942 -0.000000 0.446272 0.210939 -0.443230
5.100000 -15.297976 -34.307281 -0.000000 0.178988 0.440036 -0.191071 -87.792893 984.256452 -0.000000 0.439389 0.202733 -0.442991
5.105000 -20.559837 -34.143764 -0.000000 0.187804 0.448291 -0.191451 -66.549720 1013.570501 -0.000000 0.432073 0.194962 -0.442783
5.110000 -26.439396 -34.252484 -0.000000 0.197123 0.456007 -0.191956 -43.195949 1037.765843 -0.000000 0.424316 0.187641 -0.442606
5.115000 -32.757869 -34.667649 -0.000000 0.206674 0.463339 -0.192770 -19.197401 1056.068720 -0.000000 0.416243 0.180917 -0.442534
5.120000 -39.362581 -35.357641 -0.000000 0.216890 0.469952 -0.193374 5.660484 1067.989510 -0.000000 0.407891 0.174752 -0.442362
5.125000 -46.103342 -36.195626 -0.000000 0.228272 0.476044 -0.192829 32.870603 1073.044994 -0.000000 0.399189 0.169212 -0.442276
5.130000 -52.642284 -37.244940 -0.000000 0.239464 0.481680 -0.193397 58.646544 1070.925728 -0.000000 0.390302 0.164218 -0.442156
5.135000 -58.843837 -38.334176 -0.000000 0.251105 0.486668 -0.193939 84.221636 1061.347146 -0.000000 0.381144 0.159840 -0.442092
5.140000 -64.571401 -39.289859 -0.000000 0.263125 0.490940 -0.194214 108.987774 1044.155378 -0.000000 0.371825 0.156076 -0.442128
5.145000 -69.741477 -39.848566 -0.000000 0.275376 0.494652 -0.194753 132.386883 1019.311487 -0.000000 0.362374 0.152945 -0.442126
5.150000 -74.327406 -39.617029 -0.000000 0.288159 0.497790 -0.195411 154.713455 986.736391 -0.000000 0.352825 0.150496 -0.442046
5.155000 -78.198625 -38.344808 -0.000000 0.300791 0.500169 -0.195893 173.937374 946.781154 -0.000000 0.343166 0.148747 -0.442056
5.160000 -81.279796 -35.642523 -0.000000 0.313545 0.501983 -0.196437 190.345854 899.627049 -0.000000 0.333488 0.147641 -0.442108
5.165000 -83.439310 -31.232095 -0.000000 0.326397 0.502805 -0.197198 203.724920 845.712983 -0.000000 0.323713 0.147187 -0.442132
5.170000 -84.532836 -24.927882 -0.000000 0.339620 0.502985 -0.198150 213.981251 785.657353 -0.000000 0.313821 0.147325 -0.441487
5.175000 -84.387415 -16.763633 -0.000000 0.353019 0.502658 -0.199280 219.888334 720.570234 -0.000000 0.304320 0.148187 -0.441548
5.180000 -82.898652 -6.861897 -0.000000 0.366293 0.501584 -0.199479 220.471855 651.740329 -0.000000 0.295045 0.149520 -0.441589
5.185000 -80.084625 4.684100 -0.000000 0.379453 0.499925 -0.200097 215.777033 580.354241 -0.000000 0.286073 0.151490 -0.441726
5.190000 -76.073863 17.816031 -0.000000 0.392721 0.497512 -0.200666 206.324863 507.589564 -0.000000 0.277399 0.154140 -0.441891
5.195000 -71.152078 32.376246 -0.000000 0.405444 0.494360 -0.201416 191.759076 435.191072 -0.000000 0.269070 0.157540 -0.441992
5.200000 -65.657521 48.560795 -0.000000 0.418167 0.490501 -0.201289 173.419285 364.495091 -0.000000 0.261060 0.161606 -0.442225
5.205000 -60.065272 66.572232 -0.000000 0.430355 0.485765 -0.201204 151.682863 297.481762 -0.000000 0.253346 0.166280 -0.442435
5.210000 -54.828164 86.899471 -0.000000 0.442190 0.480567 -0.200902 127.723270 235.818367 -0.000000 0.246011 0.171217 -0.442587
5.215000 -50.035873 110.278394 -0.000000 0.453209 0.474234 -0.200574 103.451361 180.520346 -0.000000 0.238950 0.177432 -0.442611
5.220000 -45.985880 137.163859 -0.000000 0.463564 0.467422 -0.200224 79.825085 132.608670 -0.000000 0.232119 0.183970 -0.442576
5.225000 -42.734050 167.941662 -0.000000 0.473321 0.460137 -0.199850 58.216349 92.215686 -0.000000 0.225515 0.191014 -0.442511
5.230000 -40.424614 202.684593 -0.000000 0.481948 0.452222 -0.199257 39.607637 58.990434 -0.000000 0.219178 0.198601 -0.442431
5.235000 -38.788661 241.197924 -0.000000 0.489538 0.443282 -0.198599 24.705405 32.082139 -0.000000 0.213030 0.206762 -0.442412
5.240000 -38.289514 282.765873 -0.000000 0.496439 0.434262 -0.197915 13.617090 10.525052 -0.000000 0.207236 0.215422 -0.442244
5.245000 -38.691788 326.429331 -0.000000 0.502710 0.424832 -0.197071 6.208841 -6.776146 -0.000000 0.201853 0.224519 -0.442222
5.250000 -39.627447 370.919267 -0.000000 0.508374 0.414647 -0.195876 1.948458 -20.734497 -0.000000 0.196985 0.233958 -0.442210
5.255000 -41.237499 414.745805 -0.000000 0.513364 0.404175 -0.194186 0.137830 -31.996572 -0.000000 0.192628 0.243761 -0.442275
5.260000 -43.705696 456.488920 -0.000000 0.517775 0.393676 -0.192283 0.080081 -40.924833 -0.000000 0.189005 0.253773 -0.442384
5.265000 -46.792415 495.063207 -0.000000 0.521737 0.383104 -0.192548 1.090916 -47.617209 -0.000000 0.185985 0.263852 -0.442494
5.270000 -50.498406 529.798208 -0.000000 0.525461 0.372493 -0.192997 2.640207 -51.982079 -0.000000 0.183669 0.274015 -0.442645
5.275000 -54.487710 560.516013 -0.000000 0.528607 0.361611 -0.192675 4.400458 -53.901016 -0.000000 0.182019 0.284224 -0.442872
5.280000 -58.744453 587.372511 -0.000000 0.531292 0.350539 -0.192375 6.302076 -53.410921 -0.000000 0.181143 0.294404 -0.443037
5.285000 -63.272637 610.743416 -0.000000 0.533541 0.339534 -0.192841 8.406621 -50.810355 -0.000000 0.180824 0.304588 -0.443246
5.290000 -67.588913 631.175093 -0.000000 0.535225 0.328503 -0.193143 10.750762 -46.681576 -0.000000 0.181147 0.314798 -0.443549
5.295000 -70.680704 649.336447 -0.000000 0.536131 0.317410 -0.193267 13.286920 -41.801873 -0.000000 0.182205 0.325291 -0.443738
5.300000 -72.894209 665.738881 -0.000000 0.536267 0.306477 -0.193534 15.993191 -36.916157 -0.000000 0.183812 0.335854 -0.443811
5.305000 -73.749269 680.906101 -0.000000 0.535533 0.295577 -0.193838 18.704467 -32.619664 -0.000000 0.185953 0.346380 -0.443894
5.310000 -72.783410 695.270228 -0.000000 0.533794 0.284862 -0.193882 21.175621 -29.310179 -0.000000 0.188767 0.357000 -0.443889
